<?xml version="1.0" encoding="utf-8"?>
<!-- Generator: Adobe Illustrator 16.0.0, SVG Export Plug-In . SVG Version: 6.00 Build 0)  -->
<!DOCTYPE svg PUBLIC "-//W3C//DTD SVG 1.0//EN" "http://www.w3.org/TR/2001/REC-SVG-20010904/DTD/svg10.dtd">
<svg version="1.0" id="Layer_1" xmlns="http://www.w3.org/2000/svg" xmlns:xlink="http://www.w3.org/1999/xlink" x="0px" y="0px"
	 width="367.92px" height="71.435px" viewBox="0 0 367.92 71.435" enable-background="new 0 0 367.92 71.435" xml:space="preserve">
<path fill="#231F20" d="M2.092,44.44h210.246H2.092z"/>
<g>
	
		<line fill="none" stroke="#231F20" stroke-width="1.921" stroke-miterlimit="10" x1="2.092" y1="44.825" x2="212.338" y2="44.825"/>
</g>
<path fill="#231F20" d="M5.893,35.014h17.931H5.893z"/>
<line fill="none" stroke="#231F20" stroke-width="1.921" stroke-miterlimit="10" x1="5.893" y1="35.014" x2="23.823" y2="35.014"/>
<text transform="matrix(1 0 0 1 4.8467 32.8687)" fill="#231F20" font-family="'Helvetica'" font-size="6.7967">100 bp</text>
<polygon fill="#C6C4C3" points="46.447,38.849 2.211,38.849 2.211,50.033 46.447,50.033 46.447,52.829 48.315,44.439 46.447,36.052 
	"/>
<text transform="matrix(1 0 0 1 10.3774 68.7954)"><tspan x="0" y="0" fill="#231F20" font-family="'Helvetica'" font-size="10">A</tspan><tspan x="6.56" y="0" fill="#231F20" font-family="'Helvetica'" font-size="10">ga2</tspan></text>
<polygon fill="#C6C4C3" points="54.012,38.849 56.593,38.849 56.593,36.052 58.462,44.44 56.593,52.829 56.593,50.033 
	54.012,50.033 "/>
<text transform="matrix(1 0 0 1 49.7788 68.7954)" fill="#231F20" font-family="'Helvetica'" font-size="10">HA</text>
<polygon fill="#F6AE36" points="70.034,38.849 127.797,38.849 127.797,36.052 129.667,44.44 127.797,52.829 127.797,50.033 
	70.034,50.033 "/>
<polygon fill="#C6C4C3" points="206.27,38.548 209.385,38.548 209.385,35.735 211.254,44.176 209.385,52.616 209.385,49.803 
	206.27,49.803 "/>
<polygon fill="#7C7B7B" points="143.373,38.849 204.164,38.849 204.164,36.052 206.033,44.44 204.164,52.829 204.164,50.033 
	143.373,50.033 "/>
<text transform="matrix(1 0 0 1 196.043 68.7954)"><tspan x="0" y="0" fill="#231F20" font-family="'Helvetica'" font-size="10">c</tspan><tspan x="5.041" y="0" fill="#231F20" font-family="'Helvetica'" font-size="10">-</tspan><tspan x="8.371" y="0" fill="#231F20" font-family="'Helvetica'" font-size="10">M</tspan><tspan x="16.761" y="0" fill="#231F20" font-family="'Helvetica'" font-size="10">y</tspan><tspan x="21.66" y="0" fill="#231F20" font-family="'Helvetica'" font-size="10">c</tspan></text>
<rect x="81.484" y="38.849" fill="#2D2C2C" width="9.435" height="11.185"/>
<rect x="98.217" y="38.849" fill="#2D2C2C" width="4.45" height="11.185"/>
<rect x="119.222" y="38.849" fill="#2D2C2C" width="4.984" height="11.185"/>
<rect x="158.74" y="38.849" fill="#015789" width="2.85" height="11.185"/>
<rect x="168.887" y="38.849" fill="#2D2C2C" width="10.859" height="11.223"/>
<rect x="196.123" y="38.849" fill="#EE4023" width="4.451" height="11.185"/>
<line fill="none" stroke="#010202" stroke-width="1.1526" stroke-miterlimit="10" x1="158.056" y1="50.033" x2="158.056" y2="38.849"/>
<line fill="none" stroke="#010202" stroke-width="1.1526" stroke-miterlimit="10" x1="162.271" y1="50.033" x2="162.271" y2="38.849"/>
<line fill="none" stroke="#010202" stroke-width="1.1526" stroke-miterlimit="10" x1="201.107" y1="50.239" x2="201.107" y2="38.849"/>
<line fill="none" stroke="#010202" stroke-width="1.1526" stroke-miterlimit="10" x1="196.123" y1="50.033" x2="196.123" y2="38.849"/>
<text transform="matrix(1 0 0 1 66.4429 20.5435)"><tspan x="0" y="0" fill="#231F20" font-family="'Helvetica'" font-size="10">TFS</tspan><tspan x="18.887" y="0" fill="#015789" font-family="'Helvetica'" font-size="10">DYWMN</tspan><tspan x="59.219" y="0" fill="#231F20" font-family="'Helvetica'" font-size="10">WV</tspan></text>
<text transform="matrix(1 0 0 1 153.1016 20.5435)"><tspan x="0" y="0" fill="#231F20" font-family="'Helvetica'" font-size="10">G</tspan><tspan x="7.778" y="0" fill="#EE4023" font-family="'Helvetica'" font-size="10">SYYGMDY</tspan><tspan x="55.898" y="0" fill="#231F20" font-family="'Helvetica'" font-size="10">WG</tspan></text>
<line fill="none" stroke="#010202" stroke-width="1.1526" stroke-linecap="round" stroke-miterlimit="10" x1="153.723" y1="38.116" x2="155.99" y2="38.536"/>
<text transform="matrix(1 0 0 1 79.3315 58.9268)" fill="#231F20" font-family="'Helvetica'" font-size="10">1L</text>
<text transform="matrix(1 0 0 1 95.8647 58.9268)" fill="#231F20" font-family="'Helvetica'" font-size="10">2L</text>
<text transform="matrix(1 0 0 1 116.6948 58.9268)" fill="#231F20" font-family="'Helvetica'" font-size="10">3L</text>
<text transform="matrix(1 0 0 1 152.8691 58.9268)" fill="#015789" font-family="'Helvetica'" font-size="10">1H</text>
<text transform="matrix(1 0 0 1 167.8813 58.9268)" fill="#231F20" font-family="'Helvetica'" font-size="10">2H</text>
<text transform="matrix(1 0 0 1 190.3252 58.9268)" fill="#EE4023" font-family="'Helvetica'" font-size="10">3H</text>
<text transform="matrix(1 0 0 1 15.3687 20.4346)"><tspan x="0" y="0" fill="#231F20" font-family="'Helvetica'" font-size="10">v</tspan><tspan x="4.97" y="0" fill="#231F20" font-family="'Helvetica'" font-size="10">a</tspan><tspan x="10.532" y="0" fill="#231F20" font-family="'Helvetica'" font-size="10">r</tspan><tspan x="13.892" y="0" fill="#231F20" font-family="'Helvetica'" font-size="10">iable:</tspan></text>
<text transform="matrix(1 0 0 1 1.1675 11.0142)" fill="#231F20" font-family="'Helvetica'" font-size="14">A</text>
<text transform="matrix(1 0 0 1 96.541 68.7954)" fill="#231F20" font-family="'Helvetica'" font-size="10">V</text>
<text transform="matrix(1 0 0 1 102.5439 69.688)" fill="#231F20" font-family="'Helvetica'" font-size="6.2718">L</text>
<text transform="matrix(1 0 0 1 169.54 68.7954)" fill="#231F20" font-family="'Helvetica'" font-size="10">V</text>
<text transform="matrix(1 0 0 1 175.543 69.688)" fill="#231F20" font-family="'Helvetica'" font-size="6.2718">H</text>
<text transform="matrix(1 0 0 1 316.3516 21.2275)" fill="#015789" font-family="'Helvetica'" font-size="10">1H</text>
<text transform="matrix(1 0 0 1 343.5254 21.2275)" fill="#EE4023" font-family="'Helvetica'" font-size="10">3H</text>
<text transform="matrix(1 0 0 1 260.4424 36.9121)"><tspan x="0" y="0" fill="#231F20" font-family="'Helvetica'" font-size="10">1 </tspan><tspan x="8.34" y="0" fill="#231F20" font-family="'Helvetica'" font-size="10">c</tspan><tspan x="13.29" y="0" fill="#231F20" font-family="'Helvetica'" font-size="10">odon</tspan></text>
<text transform="matrix(1 0 0 1 260.4424 50.0693)"><tspan x="0" y="0" fill="#231F20" font-family="'Helvetica'" font-size="10">2 </tspan><tspan x="8.34" y="0" fill="#231F20" font-family="'Helvetica'" font-size="10">c</tspan><tspan x="13.29" y="0" fill="#231F20" font-family="'Helvetica'" font-size="10">odon</tspan></text>
<text transform="matrix(1 0 0 1 260.4424 63.2256)"><tspan x="0" y="0" fill="#231F20" font-family="'Helvetica'" font-size="10">3 </tspan><tspan x="8.34" y="0" fill="#231F20" font-family="'Helvetica'" font-size="10">c</tspan><tspan x="13.29" y="0" fill="#231F20" font-family="'Helvetica'" font-size="10">odon</tspan></text>
<text transform="matrix(1 0 0 1 314.6289 36.9121)" fill="#015789" font-family="'Helvetica'" font-size="10">600</text>
<text transform="matrix(1 0 0 1 309.1113 50.0693)" fill="#015789" font-family="'Helvetica'" font-size="10">1100</text>
<text transform="matrix(1 0 0 1 314.6289 63.2256)" fill="#015789" font-family="'Helvetica'" font-size="10">150</text>
<text transform="matrix(1 0 0 1 342.0293 36.9121)" fill="#EE4023" font-family="'Helvetica'" font-size="10">600</text>
<text transform="matrix(1 0 0 1 336.5117 50.0693)" fill="#EE4023" font-family="'Helvetica'" font-size="10">1100</text>
<text transform="matrix(1 0 0 1 342.0293 63.2256)" fill="#EE4023" font-family="'Helvetica'" font-size="10">150</text>
<text transform="matrix(1 0 0 1 257.1719 21.001)"><tspan x="0" y="0" fill="#231F20" font-family="'Helvetica'" font-size="10">v</tspan><tspan x="4.971" y="0" fill="#231F20" font-family="'Helvetica'" font-size="10">a</tspan><tspan x="10.531" y="0" fill="#231F20" font-family="'Helvetica'" font-size="10">r</tspan><tspan x="13.892" y="0" fill="#231F20" font-family="'Helvetica'" font-size="10">i</tspan><tspan x="16.113" y="0" fill="#231F20" font-family="'Helvetica'" font-size="10">a</tspan><tspan x="21.645" y="0" fill="#231F20" font-family="'Helvetica'" font-size="10">tion</tspan></text>
<line fill="none" stroke="#231F20" stroke-width="1.921" stroke-miterlimit="10" x1="304.87" y1="12.795" x2="304.87" y2="68.506"/>
<line fill="none" stroke="#231F20" stroke-width="2" x1="260.442" y1="25.392" x2="361.149" y2="25.392"/>
<text transform="matrix(1 0 0 1 238.9453 11.0142)" fill="#231F20" font-family="'Helvetica'" font-size="14">B</text>
<line fill="#595A5A" stroke="#636464" stroke-width="0.8" stroke-miterlimit="10" x1="158.056" y1="38.849" x2="69.684" y2="22.624"/>
<line fill="#595A5A" stroke="#636464" stroke-width="0.8" stroke-miterlimit="10" x1="162.495" y1="38.574" x2="129.667" y2="22.349"/>
<line fill="#595A5A" stroke="#636464" stroke-width="0.8" stroke-miterlimit="10" x1="196.16" y1="38.574" x2="153.238" y2="22.349"/>
<line fill="#595A5A" stroke="#636464" stroke-width="0.8" stroke-miterlimit="10" x1="201.087" y1="38.849" x2="215.043" y2="22.624"/>
</svg>
